<mxfile host="app.diagrams.net" modified="2023-05-14T07:19:48.814Z" agent="Mozilla/5.0 (Windows NT 10.0; Win64; x64) AppleWebKit/537.36 (KHTML, like Gecko) Chrome/115.0.0.0 Safari/537.36 Edg/115.0.0.0" version="21.2.9" etag="7nuC1LOQ7eEbzOlPxBP3" type="github">
  <diagram name="第 1 页" id="C6K9CvDlEaFAPa34LXr9">
    <mxGraphModel>
      <root>
        <mxCell id="0" />
        <mxCell id="1" parent="0" />
      </root>
    </mxGraphModel>
  </diagram>
</mxfile>
